<svg xmlns="http://www.w3.org/2000/svg" viewBox="0 0 204.98 34.49"><defs><style>.cls-1{fill:#669df6;}.cls-2{fill:#1a73e8;}.cls-3{fill:#757575;}</style></defs><g id="Vrstva_2" data-name="Vrstva 2"><g id="Layer_1" data-name="Layer 1"><path class="cls-1" d="M32.93,25.09H19.26c-3.31,0-5.15,2.28-5.15,4.7,0,2.24,1.57,4.7,5.15,4.7H32.93Z"></path><circle class="cls-2" cx="32.93" cy="29.79" r="4.7"></circle><path class="cls-1" d="M18.81,12.54H5.15C1.84,12.54,0,14.83,0,17.25,0,19.49,1.57,22,5.15,22H18.81Z"></path><circle class="cls-2" cx="18.81" cy="17.25" r="4.7"></circle><path class="cls-1" d="M32.93,0H19.26C16,0,14.11,2.28,14.11,4.7c0,2.24,1.57,4.71,5.15,4.71H32.93Z"></path><circle class="cls-2" cx="32.93" cy="4.7" r="4.7"></circle><path class="cls-3" d="M58.11,28.32V6.88h6.56a10.7,10.7,0,0,1,7.89,3,10.43,10.43,0,0,1,3,7.75,10.41,10.41,0,0,1-3,7.77,10.72,10.72,0,0,1-7.89,2.95Zm2.76-18.8V25.69h3.8a8,8,0,0,0,5.9-2.14,8,8,0,0,0,2.15-5.95,8,8,0,0,0-2.15-5.93,8,8,0,0,0-5.9-2.15Z"></path><path class="cls-3" d="M83.89,13.17a6.84,6.84,0,0,1,4.82,1.63,5.79,5.79,0,0,1,1.77,4.48v9H87.84v-2h-.11a5.28,5.28,0,0,1-4.56,2.51,5.89,5.89,0,0,1-4-1.44,4.56,4.56,0,0,1-1.63-3.59,4.35,4.35,0,0,1,1.72-3.62A7.22,7.22,0,0,1,83.8,18.8a8.08,8.08,0,0,1,4,.9v-.63a3.12,3.12,0,0,0-1.13-2.44,3.91,3.91,0,0,0-2.67-1,4.23,4.23,0,0,0-3.65,1.94L78,16.05A6.77,6.77,0,0,1,83.89,13.17ZM80.33,23.83a2.2,2.2,0,0,0,.91,1.8,3.35,3.35,0,0,0,2.14.72,4.39,4.39,0,0,0,3.1-1.29,4,4,0,0,0,1.36-3,5.68,5.68,0,0,0-3.59-1,4.66,4.66,0,0,0-2.8.81A2.37,2.37,0,0,0,80.33,23.83Z"></path><path class="cls-3" d="M99.1,28.56a4.2,4.2,0,0,1-3-1.11,4.11,4.11,0,0,1-1.21-3.08v-8.2H92.34V13.65h2.57V9.16h2.76v4.49h3.59v2.52H97.67v7.3a2.67,2.67,0,0,0,.57,2,1.82,1.82,0,0,0,1.28.53,2.82,2.82,0,0,0,.65-.08,3.29,3.29,0,0,0,.58-.19l.87,2.45A7.41,7.41,0,0,1,99.1,28.56Z"></path><path class="cls-3" d="M109.16,13.17A6.89,6.89,0,0,1,114,14.8a5.82,5.82,0,0,1,1.76,4.48v9h-2.63v-2H113a5.27,5.27,0,0,1-4.55,2.51,5.91,5.91,0,0,1-4.06-1.44,4.56,4.56,0,0,1-1.63-3.59,4.35,4.35,0,0,1,1.72-3.62,7.24,7.24,0,0,1,4.59-1.35,8.15,8.15,0,0,1,4.05.9v-.63A3.13,3.13,0,0,0,112,16.63a3.91,3.91,0,0,0-2.67-1,4.24,4.24,0,0,0-3.65,1.94l-2.42-1.52A6.74,6.74,0,0,1,109.16,13.17ZM105.6,23.83a2.23,2.23,0,0,0,.91,1.8,3.38,3.38,0,0,0,2.15.72,4.36,4.36,0,0,0,3.09-1.29,4,4,0,0,0,1.37-3,5.73,5.73,0,0,0-3.6-1,4.68,4.68,0,0,0-2.8.81A2.39,2.39,0,0,0,105.6,23.83Z"></path><path class="cls-3" d="M138.27,22.6a5.58,5.58,0,0,1-2.07,4.53,7.93,7.93,0,0,1-5.09,1.67,7.51,7.51,0,0,1-4.7-1.56A7.89,7.89,0,0,1,123.6,23l2.63-1.07a6.91,6.91,0,0,0,.75,1.73A5.61,5.61,0,0,0,128.1,25a5.12,5.12,0,0,0,1.43.87,4.28,4.28,0,0,0,1.64.32,4.75,4.75,0,0,0,3.09-1,3.17,3.17,0,0,0,1.19-2.59,3.12,3.12,0,0,0-1-2.3A9.42,9.42,0,0,0,131,18.5c-1.71-.62-2.78-1-3.2-1.26a5.49,5.49,0,0,1-3.42-5.12,5.23,5.23,0,0,1,1.89-4A6.89,6.89,0,0,1,131,6.4a7.19,7.19,0,0,1,4.25,1.26,5.9,5.9,0,0,1,2.4,3.09L135,11.82a3.91,3.91,0,0,0-1.43-2,4.6,4.6,0,0,0-5.31.11,2.62,2.62,0,0,0-1.11,2.18,2.54,2.54,0,0,0,.87,1.92A14.87,14.87,0,0,0,132.22,16a10.51,10.51,0,0,1,4.66,2.71A5.81,5.81,0,0,1,138.27,22.6Z"></path><path class="cls-3" d="M146.17,28.56a4.2,4.2,0,0,1-3-1.11A4.11,4.11,0,0,1,142,24.37v-8.2h-2.57V13.65H142V9.16h2.76v4.49h3.59v2.52h-3.59v7.3a2.72,2.72,0,0,0,.56,2,1.86,1.86,0,0,0,1.29.53,2.82,2.82,0,0,0,.65-.08,3.29,3.29,0,0,0,.58-.19l.87,2.45A7.41,7.41,0,0,1,146.17,28.56Z"></path><path class="cls-3" d="M163.84,28.32H161.2v-2h-.12a4.87,4.87,0,0,1-1.93,1.79,5.5,5.5,0,0,1-2.71.72,5.39,5.39,0,0,1-4.14-1.54,6.16,6.16,0,0,1-1.46-4.39V13.65h2.76v9q.09,3.6,3.62,3.6A3.45,3.45,0,0,0,160,25a4.84,4.84,0,0,0,1.1-3.18V13.65h2.76Z"></path><path class="cls-3" d="M173.18,28.8a6.48,6.48,0,0,1-4.94-2.27,8.08,8.08,0,0,1-2-5.54,8.06,8.06,0,0,1,2-5.54,6.46,6.46,0,0,1,4.94-2.28,6.32,6.32,0,0,1,2.95.69,5.16,5.16,0,0,1,2.05,1.83h.12l-.12-2V6.88h2.76V28.32H178.3v-2h-.12a5.13,5.13,0,0,1-2.05,1.82A6.32,6.32,0,0,1,173.18,28.8Zm.45-2.51A4.19,4.19,0,0,0,177,24.82,5.45,5.45,0,0,0,178.3,21,5.48,5.48,0,0,0,177,17.18a4.23,4.23,0,0,0-3.32-1.49,4.31,4.31,0,0,0-3.32,1.49A5.48,5.48,0,0,0,169,21a5.4,5.4,0,0,0,1.35,3.8A4.28,4.28,0,0,0,173.63,26.29Z"></path><path class="cls-3" d="M187.85,8.59a1.88,1.88,0,0,1-.57,1.38,1.84,1.84,0,0,1-1.37.57A1.95,1.95,0,0,1,184,8.59a1.95,1.95,0,0,1,1.95-1.95,1.84,1.84,0,0,1,1.37.57A1.88,1.88,0,0,1,187.85,8.59Zm-.57,5.06V28.32h-2.75V13.65Z"></path><path class="cls-3" d="M189.89,21a7.74,7.74,0,0,1,2.13-5.6,7.69,7.69,0,0,1,10.81,0A7.71,7.71,0,0,1,205,21a7.68,7.68,0,0,1-2.15,5.6,7.71,7.71,0,0,1-10.81,0A7.77,7.77,0,0,1,189.89,21Zm2.75,0A5.37,5.37,0,0,0,194,24.82a4.7,4.7,0,0,0,6.83,0A5.37,5.37,0,0,0,202.23,21a5.34,5.34,0,0,0-1.38-3.81,4.66,4.66,0,0,0-6.83,0A5.34,5.34,0,0,0,192.64,21Z"></path></g></g></svg>